<svg id="Layer_1" data-name="Layer 1" xmlns="http://www.w3.org/2000/svg" viewBox="0 0 2683.89 1228.27" preserveAspectRatio="none"><defs><style>.cls-1{fill:#c6e5f6;}.cls-1,.cls-2,.cls-3,.cls-4{stroke:#000;stroke-miterlimit:10;}.cls-1,.cls-2,.cls-3{stroke-width:0.25px;}.cls-2,.cls-4{fill:#005297;}.cls-3{fill:#7fd2f7;}</style></defs><polygon class="cls-1" points="678.01 1227.77 0.13 1227.77 0.13 1217.15 328.88 1046.15 457.55 1113.09 678.01 1227.77"/><polygon class="cls-1" points="1343.28 1079.89 1878.05 1227.77 42.8 1227.77 457.55 1113.09 960.42 974.03 1133.42 1021.88 1343.28 1079.89"/><polygon class="cls-2" points="2017.05 1227.77 794.89 1227.77 1133.42 1021.88 1405.96 856.12 1553.33 945.74 1922.88 1170.49 2017.05 1227.77"/><polygon class="cls-3" points="2683.39 829.61 2683.39 1227.77 1111.74 1227.77 1343.28 1079.89 1553.33 945.74 2209.28 526.79 2302.84 586.55 2683.39 829.61"/><polygon class="cls-4" points="2683.39 1.69 2683.39 1227.77 1885.63 1227.77 1922.88 1170.49 2302.84 586.55 2683.39 1.69"/></svg>